<svg width="44" height="39" viewBox="0 0 44 39" fill="none" xmlns="http://www.w3.org/2000/svg">
<path d="M40.3333 2.4375H3.66667C1.64236 2.4375 0 4.0752 0 6.09375V32.9062C0 34.9248 1.64236 36.5625 3.66667 36.5625H40.3333C42.3576 36.5625 44 34.9248 44 32.9062V6.09375C44 4.0752 42.3576 2.4375 40.3333 2.4375ZM40.3333 32.9062H3.66667V6.09375H40.3333V32.9062ZM15.8889 19.5C18.5854 19.5 20.7778 17.3139 20.7778 14.625C20.7778 11.9361 18.5854 9.75 15.8889 9.75C13.1924 9.75 11 11.9361 11 14.625C11 17.3139 13.1924 19.5 15.8889 19.5ZM9.04444 29.25H22.7333C23.6806 29.25 24.4444 28.5949 24.4444 27.7875V26.325C24.4444 23.9027 22.1451 21.9375 19.3111 21.9375C18.4861 21.9375 17.8826 22.5469 15.8889 22.5469C13.834 22.5469 13.3375 21.9375 12.4667 21.9375C9.63264 21.9375 7.33333 23.9027 7.33333 26.325V27.7875C7.33333 28.5949 8.09722 29.25 9.04444 29.25ZM27.5 24.375H36.0556C36.3917 24.375 36.6667 24.1008 36.6667 23.7656V22.5469C36.6667 22.2117 36.3917 21.9375 36.0556 21.9375H27.5C27.1639 21.9375 26.8889 22.2117 26.8889 22.5469V23.7656C26.8889 24.1008 27.1639 24.375 27.5 24.375ZM27.5 19.5H36.0556C36.3917 19.5 36.6667 19.2258 36.6667 18.8906V17.6719C36.6667 17.3367 36.3917 17.0625 36.0556 17.0625H27.5C27.1639 17.0625 26.8889 17.3367 26.8889 17.6719V18.8906C26.8889 19.2258 27.1639 19.5 27.5 19.5ZM27.5 14.625H36.0556C36.3917 14.625 36.6667 14.3508 36.6667 14.0156V12.7969C36.6667 12.4617 36.3917 12.1875 36.0556 12.1875H27.5C27.1639 12.1875 26.8889 12.4617 26.8889 12.7969V14.0156C26.8889 14.3508 27.1639 14.625 27.5 14.625Z" fill="#152C5B"/>
</svg>
