<svg width="35" height="35" viewBox="0 0 35 35" fill="none" xmlns="http://www.w3.org/2000/svg">
<circle cx="17.5" cy="17.5" r="17.5" fill="#3252DF"/>
<g clip-path="url(#clip0)">
<path d="M22.3754 18.1797L23.2504 17.3047C23.3871 17.168 23.625 17.2637 23.625 17.4606V21.4364C23.625 22.161 23.0371 22.7489 22.3125 22.7489H12.6875C11.9629 22.7489 11.375 22.161 11.375 21.4364V11.8114C11.375 11.0868 11.9629 10.4989 12.6875 10.4989H20.166C20.3602 10.4989 20.4586 10.734 20.3219 10.8735L19.4469 11.7485C19.4059 11.7895 19.3512 11.8114 19.291 11.8114H12.6875V21.4364H22.3125V18.3329C22.3125 18.2754 22.3344 18.2208 22.3754 18.1797ZM26.6574 12.6618L19.477 19.8422L17.0051 20.1157C16.2887 20.195 15.6789 19.5907 15.7582 18.8688L16.0316 16.3969L23.2121 9.21646C23.8383 8.59028 24.85 8.59028 25.4734 9.21646L26.6547 10.3977C27.2809 11.0239 27.2809 12.0383 26.6574 12.6618ZM23.9559 13.5067L22.3672 11.918L17.2867 17.0012L17.0871 18.7868L18.8727 18.5872L23.9559 13.5067ZM25.7277 11.3274L24.5465 10.1461C24.4344 10.034 24.2512 10.034 24.1418 10.1461L23.2969 10.9911L24.8855 12.5797L25.7305 11.7348C25.8398 11.62 25.8398 11.4395 25.7277 11.3274Z" fill="white"/>
</g>
<defs>
<clipPath id="clip0">
<rect width="15.75" height="14" fill="white" transform="translate(11.375 8.75)"/>
</clipPath>
</defs>
</svg>
