<svg width="15" height="20" viewBox="0 0 15 20" fill="none" xmlns="http://www.w3.org/2000/svg">
<g clip-path="url(#clip0)">
<path d="M8.27078 19.5965C13.9465 11.3684 15 10.5239 15 7.5C15 3.35785 11.6421 0 7.5 0C3.35785 0 0 3.35785 0 7.5C0 10.5239 1.05352 11.3684 6.72922 19.5965C7.10168 20.1345 7.89836 20.1345 8.27078 19.5965ZM7.5 10.625C5.7741 10.625 4.375 9.2259 4.375 7.5C4.375 5.7741 5.7741 4.375 7.5 4.375C9.2259 4.375 10.625 5.7741 10.625 7.5C10.625 9.2259 9.2259 10.625 7.5 10.625Z" fill="#152C5B"/>
</g>
<defs>
<clipPath id="clip0">
<rect width="15" height="20" fill="white" transform="matrix(-1 0 0 1 15 0)"/>
</clipPath>
</defs>
</svg>
