<svg width="16" height="18" viewBox="0 0 16 18" fill="none" xmlns="http://www.w3.org/2000/svg">
<g clip-path="url(#clip0)">
<path d="M14.2857 1.125H1.71429C1.25963 1.125 0.823594 1.30279 0.502103 1.61926C0.180612 1.93572 0 2.36495 0 2.8125L0 15.1875C0 15.6351 0.180612 16.0643 0.502103 16.3807C0.823594 16.6972 1.25963 16.875 1.71429 16.875H14.2857C14.7404 16.875 15.1764 16.6972 15.4979 16.3807C15.8194 16.0643 16 15.6351 16 15.1875V2.8125C16 2.36495 15.8194 1.93572 15.4979 1.61926C15.1764 1.30279 14.7404 1.125 14.2857 1.125ZM13.7004 11.931L13.1646 14.2161C13.1374 14.3323 13.071 14.436 12.9763 14.5102C12.8815 14.5845 12.764 14.6249 12.6429 14.625C6.92857 14.625 2.28571 10.0649 2.28571 4.42969C2.28997 4.31158 2.33261 4.19794 2.40738 4.10548C2.48216 4.01301 2.5851 3.94662 2.70107 3.91605L5.0225 3.38871C5.0621 3.38047 5.10239 3.37588 5.14286 3.375C5.24645 3.38015 5.34676 3.4125 5.43336 3.46869C5.51997 3.52489 5.58971 3.60288 5.63536 3.69457L6.70679 6.15551C6.73303 6.22186 6.74764 6.29212 6.75 6.36328C6.74128 6.51939 6.67076 6.66592 6.55357 6.77145L5.20036 7.86129C6.02029 9.57196 7.41896 10.9488 9.15679 11.7559L10.2639 10.4238C10.3711 10.3085 10.52 10.2391 10.6786 10.2305C10.7509 10.2328 10.8222 10.2471 10.8896 10.273L13.3896 11.3277C13.4828 11.3726 13.5621 11.4412 13.6192 11.5265C13.6763 11.6117 13.7091 11.7105 13.7143 11.8125C13.7136 11.8523 13.7089 11.892 13.7004 11.931Z" fill="#152C5B"/>
</g>
<defs>
<clipPath id="clip0">
<rect width="16" height="18" fill="white"/>
</clipPath>
</defs>
</svg>
