<svg width="19" height="21" viewBox="0 0 19 21" fill="none" xmlns="http://www.w3.org/2000/svg">
<g clip-path="url(#clip0)">
<path d="M13.546 13.1485L9.5 17.0614L5.45402 13.1485C2.42165 13.2756 0 15.675 0 18.6364V19.0301C0 20.117 0.91183 20.9989 2.03571 20.9989H16.9643C18.0882 20.9989 19 20.117 19 19.0301V18.6364C19 15.675 16.5783 13.2756 13.546 13.1485ZM0.576786 3.27191L0.848214 3.33343V5.72874C0.551339 5.90101 0.339286 6.20042 0.339286 6.56136C0.339286 6.90589 0.534375 7.193 0.810045 7.36937L0.148438 9.92464C0.0763393 10.2076 0.2375 10.4989 0.470759 10.4989H2.24353C2.47679 10.4989 2.63795 10.2076 2.56585 9.92464L1.90424 7.36937C2.17991 7.193 2.375 6.90589 2.375 6.56136C2.375 6.20042 2.16295 5.90101 1.86607 5.72874V3.57132L4.66518 4.22347C4.30045 4.92894 4.07143 5.71644 4.07143 6.56136C4.07143 9.46116 6.50156 11.8114 9.5 11.8114C12.4984 11.8114 14.9286 9.46116 14.9286 6.56136C14.9286 5.71644 14.7038 4.92894 14.3348 4.22347L18.419 3.27191C19.1908 3.09144 19.1908 2.16038 18.419 1.97991L10.344 0.0931946C9.79263 -0.0339539 9.21161 -0.0339539 8.66027 0.0931946L0.576786 1.97581C-0.190848 2.15628 -0.190848 3.09144 0.576786 3.27191Z" fill="#152C5B"/>
</g>
<defs>
<clipPath id="clip0">
<rect width="19" height="21" fill="white"/>
</clipPath>
</defs>
</svg>
