<svg width="15" height="17" viewBox="0 0 15 17" fill="none" xmlns="http://www.w3.org/2000/svg">
<path d="M10.4364 12.4412L9.86719 13.0057C9.70982 13.1617 9.45536 13.1617 9.29799 13.0057L7.5 11.2193L5.70201 13.0023C5.54464 13.1584 5.29018 13.1584 5.13281 13.0023L4.56362 12.4379C4.40625 12.2818 4.40625 12.0295 4.56362 11.8734L6.36161 10.0904L4.56362 8.30742C4.40625 8.15137 4.40625 7.89902 4.56362 7.74297L5.13281 7.17852C5.29018 7.02246 5.54464 7.02246 5.70201 7.17852L7.5 8.96152L9.29799 7.17852C9.45536 7.02246 9.70982 7.02246 9.86719 7.17852L10.4364 7.74297C10.5938 7.89902 10.5938 8.15137 10.4364 8.30742L8.63504 10.0938L10.433 11.8768C10.5938 12.0328 10.5938 12.2852 10.4364 12.4412ZM15 3.71875V15.4062C15 16.2861 14.2801 17 13.3929 17H1.60714C0.719866 17 0 16.2861 0 15.4062V3.71875C0 2.83887 0.719866 2.125 1.60714 2.125H3.21429V0.398438C3.21429 0.179297 3.39509 0 3.61607 0H4.95536C5.17634 0 5.35714 0.179297 5.35714 0.398438V2.125H9.64286V0.398438C9.64286 0.179297 9.82366 0 10.0446 0H11.3839C11.6049 0 11.7857 0.179297 11.7857 0.398438V2.125H13.3929C14.2801 2.125 15 2.83887 15 3.71875ZM13.3929 15.207V5.3125H1.60714V15.207C1.60714 15.3166 1.69754 15.4062 1.80804 15.4062H13.192C13.3025 15.4062 13.3929 15.3166 13.3929 15.207Z" fill="#152C5B"/>
</svg>
