<svg width="25" height="21" viewBox="0 0 25 21" fill="none" xmlns="http://www.w3.org/2000/svg">
<g clip-path="url(#clip0)">
<path d="M19.375 8.80335C16.266 8.80335 13.75 11.3347 13.75 14.4627C13.75 17.5906 16.266 20.122 19.375 20.122C22.484 20.122 25 17.5906 25 14.4627C25 11.3347 22.484 8.80335 19.375 8.80335ZM21.875 14.7099C21.875 14.9197 21.7043 15.0915 21.4957 15.0915H19.1297C18.9211 15.0915 18.7504 14.9197 18.7504 14.7099V11.7006C18.7504 11.4907 18.9211 11.319 19.1297 11.319H19.6207C19.8293 11.319 20 11.4907 20 11.7006V13.8338H21.4957C21.7043 13.8338 21.875 14.0056 21.875 14.2155V14.7099ZM19.375 7.54573C19.5859 7.54573 19.7938 7.5587 20 7.57757V5.6593C20 4.6532 19.125 3.77287 18.125 3.77287H15V1.88643C15 0.880335 14.125 0 13.125 0H6.875C5.875 0 5 0.880335 5 1.88643V3.77287H1.875C0.875 3.77287 0 4.6532 0 5.6593V8.80335H15.4344C16.5516 8.0138 17.909 7.54573 19.375 7.54573ZM12.5 3.77287H7.5V2.51524H12.5V3.77287ZM12.7664 12.5762H8.125C7.77969 12.5762 7.5 12.2948 7.5 11.9474V10.061H0V15.7203C0 16.7264 0.875 17.6067 1.875 17.6067H13.259C12.7773 16.6619 12.5 15.5953 12.5 14.4627C12.5 13.8079 12.5969 13.1767 12.7664 12.5762Z" fill="#152C5B"/>
</g>
<defs>
<clipPath id="clip0">
<rect width="25" height="20.122" fill="white"/>
</clipPath>
</defs>
</svg>
